<svg width="122" height="50" viewBox="0 0 122 50" fill="none" xmlns="http://www.w3.org/2000/svg">
<mask id="path-2-outside-1_121_1015" maskUnits="userSpaceOnUse" x="25.5" y="9" width="28" height="35" fill="black">
<rect fill="white" x="25.5" y="9" width="28" height="35"/>
<path d="M39.2585 30.9091H42.2131L45.9347 35.8381L46.5597 36.6619L51.1335 42.7273H48.179L44.8267 38.2528L44.2301 37.4574L39.2585 30.9091ZM52.2131 25.4545C52.2131 28.4848 51.6733 31.1222 50.5938 33.3665C49.5142 35.6013 48.0275 37.3343 46.1335 38.5653C44.2491 39.7869 42.0805 40.3977 39.6278 40.3977C37.1752 40.3977 35.0019 39.7869 33.108 38.5653C31.2235 37.3343 29.7415 35.6013 28.6619 33.3665C27.5919 31.1222 27.0568 28.4848 27.0568 25.4545C27.0568 22.4242 27.5919 19.7917 28.6619 17.5568C29.7415 15.3125 31.2282 13.5795 33.1222 12.358C35.0161 11.1269 37.1847 10.5114 39.6278 10.5114C42.0805 10.5114 44.2491 11.1269 46.1335 12.358C48.0275 13.5795 49.5142 15.3125 50.5938 17.5568C51.6733 19.7917 52.2131 22.4242 52.2131 25.4545ZM49.6278 25.4545C49.6278 22.8504 49.1922 20.6203 48.321 18.7642C47.4498 16.8987 46.2614 15.4735 44.7557 14.4886C43.25 13.5038 41.5407 13.0114 39.6278 13.0114C37.7244 13.0114 36.0199 13.5038 34.5142 14.4886C33.0085 15.4735 31.8153 16.8939 30.9347 18.75C30.0634 20.6061 29.6278 22.8409 29.6278 25.4545C29.6278 28.0587 30.0634 30.2888 30.9347 32.1449C31.8059 34.0009 32.9943 35.4261 34.5 36.4205C36.0057 37.4053 37.715 37.8977 39.6278 37.8977C41.5407 37.8977 43.25 37.4053 44.7557 36.4205C46.2708 35.4356 47.464 34.0152 48.3352 32.1591C49.2064 30.2936 49.6373 28.0587 49.6278 25.4545Z"/>
</mask>
<path d="M39.2585 30.9091H42.2131L45.9347 35.8381L46.5597 36.6619L51.1335 42.7273H48.179L44.8267 38.2528L44.2301 37.4574L39.2585 30.9091ZM52.2131 25.4545C52.2131 28.4848 51.6733 31.1222 50.5938 33.3665C49.5142 35.6013 48.0275 37.3343 46.1335 38.5653C44.2491 39.7869 42.0805 40.3977 39.6278 40.3977C37.1752 40.3977 35.0019 39.7869 33.108 38.5653C31.2235 37.3343 29.7415 35.6013 28.6619 33.3665C27.5919 31.1222 27.0568 28.4848 27.0568 25.4545C27.0568 22.4242 27.5919 19.7917 28.6619 17.5568C29.7415 15.3125 31.2282 13.5795 33.1222 12.358C35.0161 11.1269 37.1847 10.5114 39.6278 10.5114C42.0805 10.5114 44.2491 11.1269 46.1335 12.358C48.0275 13.5795 49.5142 15.3125 50.5938 17.5568C51.6733 19.7917 52.2131 22.4242 52.2131 25.4545ZM49.6278 25.4545C49.6278 22.8504 49.1922 20.6203 48.321 18.7642C47.4498 16.8987 46.2614 15.4735 44.7557 14.4886C43.25 13.5038 41.5407 13.0114 39.6278 13.0114C37.7244 13.0114 36.0199 13.5038 34.5142 14.4886C33.0085 15.4735 31.8153 16.8939 30.9347 18.75C30.0634 20.6061 29.6278 22.8409 29.6278 25.4545C29.6278 28.0587 30.0634 30.2888 30.9347 32.1449C31.8059 34.0009 32.9943 35.4261 34.5 36.4205C36.0057 37.4053 37.715 37.8977 39.6278 37.8977C41.5407 37.8977 43.25 37.4053 44.7557 36.4205C46.2708 35.4356 47.464 34.0152 48.3352 32.1591C49.2064 30.2936 49.6373 28.0587 49.6278 25.4545Z" fill="#6366F1"/>
<path d="M39.2585 30.9091V29.9091H37.2438L38.4621 31.5138L39.2585 30.9091ZM42.2131 30.9091L43.0111 30.3065L42.7111 29.9091H42.2131V30.9091ZM45.9347 35.8381L45.1366 36.4406L45.138 36.4425L45.9347 35.8381ZM46.5597 36.6619L47.3581 36.0598L47.3564 36.0575L46.5597 36.6619ZM51.1335 42.7273V43.7273H53.1401L51.9319 42.1252L51.1335 42.7273ZM48.179 42.7273L47.3787 43.3269L47.6787 43.7273H48.179V42.7273ZM44.8267 38.2528L45.627 37.6532L45.6267 37.6528L44.8267 38.2528ZM44.2301 37.4574L45.0301 36.8574L45.0266 36.8527L44.2301 37.4574ZM50.5938 33.3665L51.4942 33.8014L51.4949 33.7999L50.5938 33.3665ZM46.1335 38.5653L46.6775 39.4045L46.6785 39.4038L46.1335 38.5653ZM33.108 38.5653L32.561 39.4025L32.5659 39.4057L33.108 38.5653ZM28.6619 33.3665L27.7593 33.7969L27.7615 33.8014L28.6619 33.3665ZM28.6619 17.5568L27.7608 17.1233L27.76 17.125L28.6619 17.5568ZM33.1222 12.358L33.6642 13.1983L33.6671 13.1964L33.1222 12.358ZM46.1335 12.358L45.5866 13.1952L45.5915 13.1983L46.1335 12.358ZM50.5938 17.5568L49.6926 17.9903L49.6933 17.9918L50.5938 17.5568ZM49.6278 25.4545L48.6278 25.4545L48.6278 25.4582L49.6278 25.4545ZM48.321 18.7642L47.415 19.1873L47.4158 19.1891L48.321 18.7642ZM44.7557 14.4886L45.3031 13.6518L44.7557 14.4886ZM34.5142 14.4886L35.0616 15.3255L35.0616 15.3255L34.5142 14.4886ZM30.9347 18.75L30.0312 18.3213L30.0294 18.3251L30.9347 18.75ZM30.9347 32.1449L30.0294 32.5698L30.0294 32.5698L30.9347 32.1449ZM34.5 36.4205L33.9489 37.2549L33.9526 37.2573L34.5 36.4205ZM44.7557 36.4205L44.2107 35.582L44.2083 35.5836L44.7557 36.4205ZM48.3352 32.1591L49.2405 32.584L49.2413 32.5822L48.3352 32.1591ZM39.2585 30.9091V31.9091H42.2131V30.9091V29.9091H39.2585V30.9091ZM42.2131 30.9091L41.415 31.5117L45.1366 36.4406L45.9347 35.8381L46.7327 35.2355L43.0111 30.3065L42.2131 30.9091ZM45.9347 35.8381L45.138 36.4425L45.763 37.2663L46.5597 36.6619L47.3564 36.0575L46.7314 35.2337L45.9347 35.8381ZM46.5597 36.6619L45.7612 37.264L50.3351 43.3294L51.1335 42.7273L51.9319 42.1252L47.3581 36.0598L46.5597 36.6619ZM51.1335 42.7273V41.7273H48.179V42.7273V43.7273H51.1335V42.7273ZM48.179 42.7273L48.9793 42.1277L45.627 37.6532L44.8267 38.2528L44.0264 38.8524L47.3787 43.3269L48.179 42.7273ZM44.8267 38.2528L45.6267 37.6528L45.0301 36.8574L44.2301 37.4574L43.4301 38.0574L44.0267 38.8528L44.8267 38.2528ZM44.2301 37.4574L45.0266 36.8527L40.055 30.3044L39.2585 30.9091L38.4621 31.5138L43.4337 38.0621L44.2301 37.4574ZM52.2131 25.4545H51.2131C51.2131 28.3667 50.6945 30.8501 49.6926 32.933L50.5938 33.3665L51.4949 33.7999C52.6521 31.3943 53.2131 28.603 53.2131 25.4545H52.2131ZM50.5938 33.3665L49.6933 32.9315C48.6851 35.0187 47.3145 36.605 45.5885 37.7269L46.1335 38.5653L46.6785 39.4038C48.7404 38.0635 50.3433 36.184 51.4942 33.8014L50.5938 33.3665ZM46.1335 38.5653L45.5896 37.7262C43.8819 38.8332 41.906 39.3977 39.6278 39.3977V40.3977V41.3977C42.255 41.3977 44.6162 40.7407 46.6775 39.4045L46.1335 38.5653ZM39.6278 40.3977V39.3977C37.3498 39.3977 35.3681 38.8332 33.65 37.725L33.108 38.5653L32.5659 39.4057C34.6357 40.7407 37.0006 41.3977 39.6278 41.3977V40.3977ZM33.108 38.5653L33.6549 37.7281C31.9379 36.6065 30.5712 35.02 29.5624 32.9315L28.6619 33.3665L27.7615 33.8014C28.9118 36.1827 30.509 38.062 32.561 39.4025L33.108 38.5653ZM28.6619 33.3665L29.5646 32.9361C28.5711 30.8524 28.0568 28.3679 28.0568 25.4545H27.0568H26.0568C26.0568 28.6018 26.6126 31.392 27.7593 33.7969L28.6619 33.3665ZM27.0568 25.4545H28.0568C28.0568 22.541 28.5711 20.062 29.5639 17.9887L28.6619 17.5568L27.76 17.125C26.6126 19.5213 26.0568 22.3075 26.0568 25.4545H27.0568ZM28.6619 17.5568L29.5631 17.9903C30.5714 15.8941 31.9411 14.3097 33.6642 13.1983L33.1222 12.358L32.5801 11.5176C30.5153 12.8494 28.9116 14.7309 27.7608 17.1233L28.6619 17.5568ZM33.1222 12.358L33.6671 13.1964C35.3856 12.0794 37.3617 11.5114 39.6278 11.5114V10.5114V9.51136C37.0077 9.51136 34.6466 10.1744 32.5772 11.5195L33.1222 12.358ZM39.6278 10.5114V11.5114C41.9044 11.5114 43.8793 12.0798 45.5866 13.1951L46.1335 12.358L46.6804 11.5208C44.6188 10.174 42.2566 9.51136 39.6278 9.51136V10.5114ZM46.1335 12.358L45.5915 13.1983C47.3145 14.3097 48.6843 15.8941 49.6926 17.9903L50.5938 17.5568L51.4949 17.1233C50.3441 14.7309 48.7404 12.8494 46.6756 11.5176L46.1335 12.358ZM50.5938 17.5568L49.6933 17.9918C50.6945 20.0643 51.2131 22.5422 51.2131 25.4545H52.2131H53.2131C53.2131 22.3063 52.6521 19.519 51.4942 17.1219L50.5938 17.5568ZM49.6278 25.4545H50.6278C50.6278 22.7419 50.1744 20.3592 49.2263 18.3393L48.321 18.7642L47.4158 19.1891C48.2101 20.8814 48.6278 22.9589 48.6278 25.4545H49.6278ZM48.321 18.7642L49.2271 18.3411C48.2888 16.3318 46.986 14.7525 45.3031 13.6518L44.7557 14.4886L44.2083 15.3255C45.5368 16.1945 46.6109 17.4655 47.415 19.1873L48.321 18.7642ZM44.7557 14.4886L45.3031 13.6518C43.6242 12.5536 41.7223 12.0114 39.6278 12.0114V13.0114V14.0114C41.3592 14.0114 42.8758 14.4539 44.2083 15.3255L44.7557 14.4886ZM39.6278 13.0114V12.0114C37.5418 12.0114 35.6449 12.5542 33.9668 13.6518L34.5142 14.4886L35.0616 15.3255C36.3949 14.4534 37.907 14.0114 39.6278 14.0114V13.0114ZM34.5142 14.4886L33.9668 13.6518C32.2863 14.751 30.9793 16.3231 30.0312 18.3213L30.9347 18.75L31.8381 19.1787C32.6514 17.4648 33.7308 16.196 35.0616 15.3255L34.5142 14.4886ZM30.9347 18.75L30.0294 18.3251C29.0811 20.3454 28.6278 22.733 28.6278 25.4545H29.6278H30.6278C30.6278 22.9488 31.0458 20.8667 31.8399 19.1749L30.9347 18.75ZM29.6278 25.4545H28.6278C28.6278 28.1672 29.0813 30.5499 30.0294 32.5698L30.9347 32.1449L31.8399 31.72C31.0456 30.0277 30.6278 27.9502 30.6278 25.4545H29.6278ZM30.9347 32.1449L30.0294 32.5698C30.9679 34.5691 32.2697 36.146 33.9489 37.2549L34.5 36.4205L35.0511 35.586C33.7189 34.7063 32.6439 33.4328 31.8399 31.72L30.9347 32.1449ZM34.5 36.4205L33.9526 37.2573C35.6315 38.3555 37.5334 38.8977 39.6278 38.8977V37.8977V36.8977C37.8965 36.8977 36.3799 36.4551 35.0474 35.5836L34.5 36.4205ZM39.6278 37.8977V38.8977C41.7223 38.8977 43.6242 38.3555 45.3031 37.2573L44.7557 36.4205L44.2083 35.5836C42.8758 36.4551 41.3592 36.8977 39.6278 36.8977V37.8977ZM44.7557 36.4205L45.3007 37.2589C46.9923 36.1593 48.301 34.5855 49.2405 32.584L48.3352 32.1591L47.43 31.7342C46.627 33.4448 45.5493 34.7119 44.2107 35.582L44.7557 36.4205ZM48.3352 32.1591L49.2413 32.5822C50.1891 30.5526 50.6377 28.1647 50.6278 25.4509L49.6278 25.4545L48.6278 25.4582C48.6369 27.9528 48.2237 30.0345 47.4292 31.736L48.3352 32.1591Z" fill="#6366F1" mask="url(#path-2-outside-1_121_1015)"/>
<path d="M23.5 15L14.5 15" stroke="#6366F1" stroke-width="3" stroke-linecap="round"/>
<path d="M20.5 25H9.5" stroke="#6366F1" stroke-width="3" stroke-linecap="round"/>
<path d="M23.5 35H14.5" stroke="#6366F1" stroke-width="3" stroke-linecap="round"/>
<path d="M69.9545 29.3636V19.0455H72.6364V36.5H69.9545V33.5455H69.7727C69.3636 34.4318 68.7273 35.1856 67.8636 35.8068C67 36.4205 65.9091 36.7273 64.5909 36.7273C63.5 36.7273 62.5303 36.4886 61.6818 36.0114C60.8333 35.5265 60.1667 34.7992 59.6818 33.8295C59.197 32.8523 58.9545 31.6212 58.9545 30.1364V19.0455H61.6364V29.9545C61.6364 31.2273 61.9924 32.2424 62.7045 33C63.4242 33.7576 64.3409 34.1364 65.4545 34.1364C66.1212 34.1364 66.7992 33.9659 67.4886 33.625C68.1856 33.2841 68.7689 32.7614 69.2386 32.0568C69.7159 31.3523 69.9545 30.4545 69.9545 29.3636ZM77.5483 36.5V19.0455H80.2301V36.5H77.5483ZM78.9119 16.1364C78.3892 16.1364 77.9384 15.9583 77.5597 15.6023C77.1884 15.2462 77.0028 14.8182 77.0028 14.3182C77.0028 13.8182 77.1884 13.3902 77.5597 13.0341C77.9384 12.678 78.3892 12.5 78.9119 12.5C79.4347 12.5 79.8816 12.678 80.2528 13.0341C80.6316 13.3902 80.821 13.8182 80.821 14.3182C80.821 14.8182 80.6316 15.2462 80.2528 15.6023C79.8816 15.9583 79.4347 16.1364 78.9119 16.1364ZM92.233 36.8636C90.5966 36.8636 89.1875 36.4773 88.0057 35.7045C86.8239 34.9318 85.9148 33.8674 85.2784 32.5114C84.642 31.1553 84.3239 29.6061 84.3239 27.8636C84.3239 26.0909 84.6496 24.5265 85.3011 23.1705C85.9602 21.8068 86.8769 20.7424 88.0511 19.9773C89.233 19.2045 90.6117 18.8182 92.1875 18.8182C93.4148 18.8182 94.5208 19.0455 95.5057 19.5C96.4905 19.9545 97.2973 20.5909 97.9261 21.4091C98.5549 22.2273 98.9451 23.1818 99.0966 24.2727H96.4148C96.2102 23.4773 95.7557 22.7727 95.0511 22.1591C94.3542 21.5379 93.4148 21.2273 92.233 21.2273C91.1875 21.2273 90.2708 21.5 89.483 22.0455C88.7027 22.5833 88.0928 23.3447 87.6534 24.3295C87.2216 25.3068 87.0057 26.4545 87.0057 27.7727C87.0057 29.1212 87.2178 30.2955 87.642 31.2955C88.0739 32.2955 88.6799 33.072 89.4602 33.625C90.2481 34.178 91.1723 34.4545 92.233 34.4545C92.9299 34.4545 93.5625 34.3333 94.1307 34.0909C94.6989 33.8485 95.1799 33.5 95.5739 33.0455C95.9678 32.5909 96.2481 32.0455 96.4148 31.4091H99.0966C98.9451 32.4394 98.5701 33.3674 97.9716 34.1932C97.3807 35.0114 96.5966 35.6629 95.6193 36.1477C94.6496 36.625 93.5208 36.8636 92.233 36.8636ZM105.517 30.1364L105.472 26.8182H106.017L113.653 19.0455H116.972L108.835 27.2727H108.608L105.517 30.1364ZM103.017 36.5V13.2273H105.699V36.5H103.017ZM114.108 36.5L107.29 27.8636L109.199 26L117.517 36.5H114.108Z" fill="white"/>
</svg>
